HIERARCHY
ROOT Hips
{
	OFFSET 0.00000 0.00000 0.00000
	CHANNELS 6 Xposition Yposition Zposition Zrotation Yrotation Xrotation 
	JOINT LHipJoint
	{
		OFFSET 0 0 0
		CHANNELS 3 Zrotation Yrotation Xrotation
		JOINT LeftUpLeg
		{
			OFFSET 1.86795 -1.59681 0.65681
			CHANNELS 3 Zrotation Yrotation Xrotation
			JOINT LeftLeg
			{
				OFFSET 2.30491 -6.33268 0.00000
				CHANNELS 3 Zrotation Yrotation Xrotation
				JOINT LeftFoot
				{
					OFFSET 2.46780 -6.78022 0.00000
					CHANNELS 3 Zrotation Yrotation Xrotation
					JOINT LeftToeBase
					{
						OFFSET 0.07897 -0.21698 1.59652
						CHANNELS 3 Zrotation Yrotation Xrotation
						End Site
						{
							OFFSET 0.00000 -0.00000 0.82310
						}
					}
				}
			}
		}
	}
	JOINT RHipJoint
	{
		OFFSET 0 0 0
		CHANNELS 3 Zrotation Yrotation Xrotation
		JOINT RightUpLeg
		{
			OFFSET -1.93650 -1.59681 0.65681
			CHANNELS 3 Zrotation Yrotation Xrotation
			JOINT RightLeg
			{
				OFFSET -2.29410 -6.30299 0.00000
				CHANNELS 3 Zrotation Yrotation Xrotation
				JOINT RightFoot
				{
					OFFSET -2.48738 -6.83403 0.00000
					CHANNELS 3 Zrotation Yrotation Xrotation
					JOINT RightToeBase
					{
						OFFSET -0.08699 -0.23899 1.89395
						CHANNELS 3 Zrotation Yrotation Xrotation
						End Site
						{
							OFFSET -0.00000 -0.00000 0.96904
						}
					}
				}
			}
		}
	}
	JOINT LowerBack
	{
		OFFSET 0 0 0
		CHANNELS 3 Zrotation Yrotation Xrotation
		JOINT Spine
		{
			OFFSET 0.03629 1.99740 -0.07548
			CHANNELS 3 Zrotation Yrotation Xrotation
			JOINT Spine1
			{
				OFFSET 0.03970 1.94298 0.17218
				CHANNELS 3 Zrotation Yrotation Xrotation
				JOINT Neck
				{
					OFFSET 0 0 0
					CHANNELS 3 Zrotation Yrotation Xrotation
					JOINT Neck1
					{
						OFFSET -0.05054 1.79469 0.04241
						CHANNELS 3 Zrotation Yrotation Xrotation
						JOINT Head
						{
							OFFSET 0.05195 1.78475 -0.22133
							CHANNELS 3 Zrotation Yrotation Xrotation
							End Site
							{
								OFFSET 0.02420 1.80711 -0.07950
							}
						}
					}
				}
				JOINT LeftShoulder
				{
					OFFSET 0 0 0
					CHANNELS 3 Zrotation Yrotation Xrotation
					JOINT LeftArm
					{
						OFFSET 2.92134 1.19850 0.36056
						CHANNELS 3 Zrotation Yrotation Xrotation
						JOINT LeftForeArm
						{
							OFFSET 4.84137 -0.00000 0.00000
							CHANNELS 3 Zrotation Yrotation Xrotation
							JOINT LeftHand
							{
								OFFSET 3.24520 -0.00000 -0.00000
								CHANNELS 3 Zrotation Yrotation Xrotation
								JOINT LeftFingerBase
								{
									OFFSET 0 0 0
									CHANNELS 3 Zrotation Yrotation Xrotation
									JOINT LeftHandIndex1
									{
										OFFSET 0.52122 -0.00000 0.00000
										CHANNELS 3 Zrotation Yrotation Xrotation
										End Site
										{
											OFFSET 0.42022 -0.00000 0.00000
										}
									}
								}
								JOINT LThumb
								{
									OFFSET 0 0 0
									CHANNELS 3 Zrotation Yrotation Xrotation
									End Site
									{
										OFFSET 0.42664 -0.00000 0.42664
									}
								}
							}
						}
					}
				}
				JOINT RightShoulder
				{
					OFFSET 0 0 0
					CHANNELS 3 Zrotation Yrotation Xrotation
					JOINT RightArm
					{
						OFFSET -2.84327 1.20795 0.50191
						CHANNELS 3 Zrotation Yrotation Xrotation
						JOINT RightForeArm
						{
							OFFSET -4.72284 -0.00000 0.00000
							CHANNELS 3 Zrotation Yrotation Xrotation
							JOINT RightHand
							{
								OFFSET -3.23459 -0.00000 0.00000
								CHANNELS 3 Zrotation Yrotation Xrotation
								JOINT RightFingerBase
								{
									OFFSET 0 0 0
									CHANNELS 3 Zrotation Yrotation Xrotation
									JOINT RightHandIndex1
									{
										OFFSET -0.30742 -0.00000 0.00000
										CHANNELS 3 Zrotation Yrotation Xrotation
										End Site
										{
											OFFSET -0.24785 -0.00000 0.00000
										}
									}
								}
								JOINT RThumb
								{
									OFFSET 0 0 0
									CHANNELS 3 Zrotation Yrotation Xrotation
									End Site
									{
										OFFSET -0.25163 -0.00000 0.25163
									}
								}
							}
						}
					}
				}
			}
		}
	}
}
MOTION
Frames: 12
Frame Time: .0083333
11.5 16.076 -10.2171 0 0 0 0 0 0 -21 0 0 0 0 0 0 0 0 0 0 0 0 0 0 21 0 0 0 0 0 0 0 0 0 0 0 0 0 0 0 0 0 0 0 0 0 0 -16 0 0 21 0 0 11 0 0 0 -8 0 0 0 0 0 0 0 0 0 0 0 0 0 0 0 0 0 0 0 0 8 0 0 0 0 0 0 0 0 0 0 0 0 0 0 0 0 0
11.5000 16.0760 -10.2171 0.5388 -13.3910 8.3228 0.0000 0.0000 0.0000 -14.5948 -9.5270 -18.6216 3.6679 11.7049 34.6959 1.0320 10.0114 -25.2510 0.3761 -3.9386 -10.9041 0.0000 0.0000 0.0000 11.7111 22.8964 -29.9152 -3.7123 -11.7674 34.9141 1.0005 -17.4290 -8.0154 -0.5777 4.8672 -13.5302 1.1148 0.5201 12.6912 0.5427 0.7582 7.1733 -0.1549 0.3799 0.4067 -7.2356 -2.1501 -5.4546 15.3713 -1.7331 -9.3064 5.8805 -0.9454 -1.5608 -0.0000 -0.0000 0.0000 -83.8443 -29.0506 57.3489 139.3732 -48.4369 -101.0931 -0.0000 -0.0000 38.5200 -74.2759 32.0496 -62.0516 -7.1250 0.0000 -0.0000 -78.8183 46.5249 -8.5840 -0.0000 -0.0000 0.0000 83.2289 41.9427 44.8904 -91.1479 59.9950 -60.9941 0.0000 0.0000 19.1579 38.9057 -5.7138 -4.5939 7.1250 -0.0000 -0.0000 45.4982 -29.5963 25.5564
11.4835 16.0812 -10.2155 0.9570 -13.1977 8.5083 0.0000 0.0000 0.0000 -14.9412 -9.7462 -18.6367 3.5776 11.5760 34.2480 0.9509 10.3357 -24.8767 0.4930 -4.5017 -12.4925 0.0000 0.0000 0.0000 11.1993 22.7437 -30.3944 -3.7751 -11.8550 35.2208 1.0089 -17.5017 -8.0919 -0.5279 4.6560 -12.9301 0.7339 0.5266 12.6426 0.4060 0.7273 7.0994 -0.0790 0.3568 0.3510 -7.2859 -2.2489 -5.6209 15.6087 -1.8827 -8.9668 5.9549 -1.0060 -1.4110 -0.0000 0.0000 0.0000 -84.1608 -30.8478 56.2450 140.4093 -47.8255 -101.8647 -0.0000 -0.0000 40.7251 -73.6357 30.8153 -60.1782 -7.1250 0.0000 -0.0000 -74.9621 45.5426 -2.6897 -0.0000 0.0000 0.0000 82.6179 40.4870 45.0421 -87.9401 59.9840 -58.2161 0.0000 0.0000 17.8280 43.9009 -6.4735 -6.1923 7.1250 -0.0000 -0.0000 46.7458 -28.1402 30.2910
11.4682 16.0816 -10.2138 1.3339 -12.8187 8.6403 0.0000 0.0000 0.0000 -15.2225 -10.0609 -18.7036 3.5312 11.5090 34.0165 0.9082 10.4959 -24.6697 0.6100 -4.9991 -13.9059 0.0000 0.0000 0.0000 10.7713 22.3863 -30.7463 -3.8001 -11.8895 35.3423 1.0183 -17.5762 -8.0810 -0.5672 4.8235 -13.4058 0.3541 0.4767 12.5880 0.3895 0.6224 7.1562 0.1308 0.2948 0.4349 -7.5106 -2.3604 -5.9632 15.9017 -2.0115 -8.8358 6.0794 -1.0509 -1.2906 0.0000 0.0000 0.0000 -84.6414 -32.7646 54.4594 141.0883 -47.4117 -102.3663 -0.0000 -0.0000 42.5722 -74.1607 28.5055 -59.2693 -7.1250 0.0000 -0.0000 -68.1862 42.9491 8.2939 0.0000 0.0000 0.0000 81.9386 38.7587 45.3249 -86.2853 59.9478 -56.7835 0.0000 0.0000 16.8743 48.4009 -7.8683 -8.7657 7.1250 -0.0000 -0.0000 47.4434 -26.7689 34.6838
11.4414 16.0881 -10.2113 1.1277 -12.2649 8.8383 0.0000 0.0000 0.0000 -14.8176 -10.3514 -18.7363 3.4765 11.4291 33.7413 0.9076 10.3355 -24.5247 0.6129 -5.0107 -13.9391 0.0000 0.0000 0.0000 10.9800 22.3760 -30.8479 -3.8327 -11.9343 35.5001 1.0533 -17.8884 -8.5489 -0.5470 4.7382 -13.1635 0.4685 0.4022 12.4657 0.5735 0.5359 7.3519 0.2696 0.2518 0.7056 -7.7284 -2.4450 -6.1015 16.1982 -2.0527 -9.2342 6.2162 -1.0768 -1.3672 -0.0000 -0.0000 0.0000 -85.0765 -34.6429 52.8441 141.3929 -47.2226 -102.5902 -0.0000 -0.0000 44.3131 -72.7357 27.9803 -56.4791 -7.1250 0.0000 -0.0000 -66.5976 42.2544 10.5250 -0.0000 -0.0000 0.0000 81.4885 36.9270 45.5512 -85.7989 59.9332 -56.3625 0.0000 0.0000 15.9753 49.1152 -6.0656 -6.9585 7.1250 -0.0000 -0.0000 46.3699 -24.1177 38.4406
11.4162 16.0959 -10.2128 0.9974 -11.5936 8.9612 0.0000 0.0000 0.0000 -14.4977 -10.7592 -18.7326 3.4307 11.3616 33.5094 0.8686 10.3627 -24.2256 0.7164 -5.4091 -15.0791 0.0000 0.0000 0.0000 11.1116 22.2965 -30.8751 -3.8610 -11.9731 35.6370 1.0724 -18.0930 -9.1575 -0.4211 4.1649 -11.5410 0.6280 0.2934 12.4608 0.7177 0.4086 7.5436 0.3451 0.1908 0.9105 -7.8680 -2.5160 -6.0002 16.4033 -2.0678 -9.8526 6.3178 -1.1072 -1.5535 -0.0000 0.0000 0.0000 -85.2983 -36.3516 51.4644 141.2594 -47.3058 -102.4921 -0.0000 -0.0000 45.7227 -70.0741 29.1361 -53.3308 -7.1250 0.0000 -0.0000 -69.7952 43.9265 4.4559 -0.0000 0.0000 0.0000 81.2578 34.9278 45.7114 -87.8150 59.9820 -58.1078 0.0000 0.0000 16.2808 53.6661 -6.1906 -8.3412 7.1250 -0.0000 -0.0000 45.4285 -19.3558 46.5957
11.3959 16.1032 -10.2169 1.2487 -11.0037 8.8655 0.0000 0.0000 0.0000 -14.6533 -11.0868 -18.6233 3.4004 11.3166 33.3551 0.8367 10.3490 -23.9455 0.8081 -5.7370 -16.0233 0.0000 0.0000 0.0000 10.8974 21.9873 -30.8349 -3.8789 -11.9976 35.7233 1.0519 -18.0088 -9.7546 -0.2731 3.3614 -9.2867 0.4230 0.1887 12.7943 0.7925 0.2538 7.6521 0.5550 0.1055 0.8451 -7.9475 -2.5688 -5.8706 16.3726 -2.0882 -10.3549 6.3327 -1.1348 -1.7176 0.0000 -0.0000 0.0000 -85.3240 -37.6886 50.1288 140.6626 -47.6724 -102.0522 -0.0000 -0.0000 46.5131 -67.7396 30.9283 -51.4660 -7.1250 0.0000 -0.0000 -74.2732 45.8338 -3.8593 0.0000 -0.0000 0.0000 81.3121 32.9139 45.9516 -90.4756 59.9991 -60.4119 0.0000 0.0000 16.0301 56.7906 -5.9201 -8.9540 7.1250 -0.0000 -0.0000 44.3626 -14.2449 53.6320
11.3709 16.1121 -10.2172 1.2378 -10.3679 8.7885 0.0000 0.0000 0.0000 -14.5074 -11.2916 -18.5692 3.3881 11.2983 33.2926 0.8779 9.8277 -23.8385 0.6843 -5.2889 -14.7344 0.0000 0.0000 0.0000 11.0126 21.7119 -30.6822 -3.8934 -12.0172 35.7929 1.0356 -17.9998 -10.5069 -0.1648 2.6158 -7.2107 0.3598 -0.0051 13.2163 0.9937 -0.0017 7.7297 0.8305 -0.0282 0.7038 -7.7622 -2.5421 -5.9659 15.9370 -2.0547 -10.6125 6.1664 -1.1195 -1.7953 0.0000 -0.0000 0.0000 -85.1395 -38.5847 48.7859 139.6902 -48.2524 -101.3299 -0.0000 -0.0000 47.1481 -67.1641 32.0950 -51.6015 -7.1250 0.0000 -0.0000 -77.0038 46.7393 -8.6379 0.0000 -0.0000 0.0000 81.6396 30.9281 46.3982 -93.8574 59.9437 -63.3400 0.0000 0.0000 15.3597 58.4999 -5.7050 -9.2140 7.1250 -0.0000 -0.0000 43.7998 -10.7814 57.8372
11.3467 16.1152 -10.2195 0.8346 -9.5554 8.8470 0.0000 0.0000 0.0000 -13.8766 -11.6296 -18.6585 3.3829 11.2905 33.2659 0.9179 9.2594 -23.6973 0.5703 -4.8364 -13.4425 0.0000 0.0000 0.0000 11.5306 21.4743 -30.5204 -3.8967 -12.0216 35.8085 1.0312 -18.1169 -11.3294 -0.0762 1.7813 -4.9016 0.6865 -0.3058 13.5811 1.3611 -0.3516 7.7785 1.0745 -0.2001 0.5668 -7.5741 -2.4383 -6.1425 15.4221 -1.9342 -10.7278 5.9726 -1.0517 -1.8307 0.0000 0.0000 0.0000 -84.9137 -39.1173 47.8015 138.1466 -49.1304 -100.1704 -0.0000 -0.0000 48.3738 -67.2596 32.7821 -52.2562 -7.1250 0.0000 -0.0000 -78.6478 47.1710 -11.3028 0.0000 0.0000 0.0000 81.9922 29.1955 46.9735 -97.6243 59.7792 -66.5979 0.0000 0.0000 14.2633 60.1641 -6.1686 -10.6115 7.1250 -0.0000 -0.0000 43.5167 -8.2665 60.8199
11.3276 16.1114 -10.2263 0.5037 -8.7270 8.9871 0.0000 0.0000 0.0000 -13.3038 -12.1253 -18.8921 3.3895 11.3003 33.2995 0.9118 9.0543 -23.4760 0.5905 -4.9198 -13.6798 0.0000 0.0000 0.0000 11.9257 21.1725 -30.5154 -3.8873 -12.0089 35.7635 1.0472 -18.3229 -11.7685 -0.0243 1.0059 -2.7651 1.0161 -0.6198 13.8040 1.7299 -0.7173 7.8341 1.3225 -0.3797 0.5147 -7.4702 -2.2778 -6.4720 14.9848 -1.7470 -10.5923 5.8137 -0.9364 -1.7716 -0.0000 -0.0000 0.0000 -84.5274 -39.3608 47.2495 135.9197 -50.3099 -98.4713 -0.0000 -0.0000 50.0829 -67.0228 33.3466 -52.3557 -7.1250 0.0000 -0.0000 -79.8960 47.5086 -13.4877 -0.0000 -0.0000 0.0000 82.2774 28.1349 47.6054 -101.2655 59.5150 -69.7403 0.0000 0.0000 12.8630 61.3611 -6.8719 -12.3581 7.1250 -0.0000 -0.0000 43.4247 -7.1053 62.2030
11.3101 16.1199 -10.2209 0.4771 -8.0912 9.1349 0.0000 0.0000 0.0000 -13.1216 -12.5423 -19.0990 3.4087 11.3290 33.3978 0.9187 8.8752 -23.3895 0.6002 -4.9594 -13.7928 0.0000 0.0000 0.0000 11.9736 20.8646 -30.5379 -3.8692 -11.9843 35.6764 1.0789 -18.5763 -11.8998 -0.0118 0.7020 -1.9291 1.1061 -0.9261 13.7757 1.9146 -1.1070 7.9056 1.5141 -0.5748 0.6148 -7.0560 -2.0233 -6.6789 14.4293 -1.4604 -10.4437 5.5670 -0.7856 -1.7450 0.0000 0.0000 0.0000 -83.9047 -39.0796 46.8881 133.2913 -51.5786 -96.4300 -0.0000 -0.0000 52.0489 -66.4962 34.1336 -52.2231 -7.1250 0.0000 -0.0000 -81.5066 47.9443 -16.4438 0.0000 0.0000 0.0000 82.7221 27.5441 48.3713 -105.3458 59.0912 -73.2493 0.0000 0.0000 11.6415 60.8107 -7.3325 -12.8690 7.1250 -0.0000 -0.0000 43.6694 -9.1509 60.0807
11.2925 16.1253 -10.2135 0.4579 -7.6847 9.2754 0.0000 0.0000 0.0000 -12.9723 -12.8287 -19.3130 3.4366 11.3704 33.5394 0.9182 8.8082 -23.3308 0.6265 -5.0648 -14.0935 0.0000 0.0000 0.0000 12.0277 20.6344 -30.5516 -3.8455 -11.9519 35.5622 1.0949 -18.7002 -11.9559 -0.0304 1.1254 -3.0940 1.1299 -1.1889 13.7790 2.0224 -1.4463 7.9096 1.6569 -0.7453 0.6268 -6.5193 -1.7767 -6.4293 13.9770 -1.1739 -10.5898 5.3400 -0.6664 -1.8747 -0.0000 0.0000 0.0000 -83.5406 -38.2148 46.7810 130.3364 -52.8589 -94.0943 -0.0000 -0.0000 54.2930 -66.7798 33.6392 -52.2439 -7.1250 0.0000 -0.0000 -80.4911 47.6795 -14.6026 -0.0000 0.0000 0.0000 83.2736 27.2916 49.0949 -109.8775 58.4531 -77.1250 0.0000 0.0000 10.8937 60.8901 -7.4696 -13.1413 7.1250 -0.0000 -0.0000 43.6887 -9.2582 59.9893
